<svg width="583" height="144" viewBox="0 0 583 144" fill="none" xmlns="http://www.w3.org/2000/svg">
<rect width="100" height="40" rx="6" fill="#EFEFEF"/>
<rect y="104" width="100" height="40" rx="6" fill="#EFEFEF"/>
<rect y="52" width="100" height="40" rx="6" fill="#EFEFEF"/>
<path d="M198.656 55.3778C198.277 52.0161 196.715 49.4119 193.969 47.5653C191.223 45.6951 187.766 44.7599 183.599 44.7599C180.616 44.7599 178.036 45.2334 175.858 46.1804C173.68 47.1037 171.987 48.3821 170.78 50.0156C169.596 51.6255 169.004 53.4602 169.004 55.5199C169.004 57.2481 169.407 58.7396 170.212 59.9943C171.04 61.2491 172.117 62.3026 173.443 63.1548C174.793 63.9834 176.237 64.6818 177.776 65.25C179.314 65.7945 180.794 66.2443 182.214 66.5994L189.317 68.446C191.637 69.0142 194.016 69.7836 196.455 70.7543C198.893 71.7249 201.154 73.0033 203.237 74.5895C205.321 76.1757 207.001 78.1406 208.28 80.4844C209.582 82.8281 210.233 85.6335 210.233 88.9006C210.233 93.0199 209.168 96.6776 207.037 99.8736C204.93 103.07 201.864 105.591 197.839 107.438C193.839 109.284 188.997 110.207 183.315 110.207C177.87 110.207 173.159 109.343 169.182 107.615C165.205 105.887 162.091 103.437 159.842 100.264C157.593 97.0682 156.35 93.2803 156.114 88.9006H167.122C167.335 91.5284 168.188 93.7183 169.679 95.4702C171.194 97.1984 173.124 98.4886 175.467 99.3409C177.835 100.17 180.427 100.584 183.244 100.584C186.346 100.584 189.104 100.098 191.518 99.1278C193.957 98.1335 195.875 96.7604 197.271 95.0085C198.668 93.233 199.366 91.1615 199.366 88.794C199.366 86.6397 198.751 84.8759 197.52 83.5028C196.313 82.1297 194.667 80.9934 192.584 80.0938C190.524 79.1941 188.192 78.401 185.588 77.7145L176.994 75.3707C171.17 73.7846 166.554 71.4527 163.145 68.375C159.759 65.2973 158.067 61.2254 158.067 56.1591C158.067 51.9687 159.203 48.3111 161.476 45.1861C163.749 42.0611 166.826 39.6345 170.709 37.9062C174.591 36.1544 178.971 35.2784 183.848 35.2784C188.772 35.2784 193.116 36.1425 196.881 37.8707C200.669 39.599 203.652 41.9782 205.83 45.0085C208.008 48.0151 209.144 51.4716 209.239 55.3778H198.656ZM247.955 54.4545V62.9773H218.161V54.4545H247.955ZM226.151 41.3864H236.769V92.9844C236.769 95.044 237.077 96.5947 237.692 97.6364C238.308 98.6544 239.101 99.3527 240.071 99.7315C241.066 100.087 242.143 100.264 243.303 100.264C244.155 100.264 244.901 100.205 245.54 100.087C246.179 99.9683 246.676 99.8736 247.032 99.8026L248.949 108.574C248.334 108.811 247.458 109.047 246.321 109.284C245.185 109.545 243.765 109.687 242.06 109.71C239.266 109.758 236.662 109.26 234.248 108.219C231.833 107.177 229.88 105.567 228.388 103.389C226.897 101.211 226.151 98.4768 226.151 95.1861V41.3864ZM275.574 110.207C272.117 110.207 268.992 109.568 266.199 108.29C263.405 106.988 261.192 105.106 259.558 102.643C257.948 100.181 257.143 97.1629 257.143 93.5881C257.143 90.5104 257.735 87.9773 258.919 85.9886C260.103 84 261.701 82.4257 263.713 81.2656C265.725 80.1056 267.974 79.2296 270.46 78.6378C272.946 78.0459 275.479 77.5961 278.06 77.2884C281.327 76.9096 283.978 76.6018 286.014 76.3651C288.05 76.1046 289.53 75.6903 290.453 75.1222C291.376 74.554 291.838 73.6307 291.838 72.3523V72.1037C291.838 69.0024 290.962 66.5994 289.21 64.8949C287.482 63.1903 284.902 62.3381 281.469 62.3381C277.894 62.3381 275.077 63.1312 273.017 64.7173C270.981 66.2798 269.572 68.0199 268.791 69.9375L258.812 67.6648C259.996 64.3504 261.724 61.6752 263.997 59.6392C266.294 57.5795 268.933 56.0881 271.916 55.1648C274.899 54.2178 278.036 53.7443 281.327 53.7443C283.505 53.7443 285.813 54.0047 288.251 54.5256C290.714 55.0227 293.01 55.946 295.141 57.2955C297.295 58.6449 299.059 60.5743 300.432 63.0838C301.805 65.5696 302.491 68.8011 302.491 72.7784V109H292.122V101.543H291.696C291.009 102.916 289.98 104.265 288.607 105.591C287.233 106.917 285.47 108.018 283.315 108.893C281.161 109.769 278.58 110.207 275.574 110.207ZM277.882 101.685C280.818 101.685 283.327 101.105 285.411 99.9446C287.518 98.7846 289.116 97.2694 290.205 95.3991C291.317 93.5052 291.874 91.4811 291.874 89.3267V82.2955C291.495 82.6742 290.761 83.0294 289.672 83.3608C288.607 83.6686 287.387 83.9408 286.014 84.1776C284.641 84.3906 283.304 84.5919 282.001 84.7812C280.699 84.947 279.61 85.089 278.734 85.2074C276.675 85.4678 274.793 85.9058 273.088 86.5213C271.407 87.1368 270.058 88.0246 269.04 89.1847C268.045 90.321 267.548 91.8362 267.548 93.7301C267.548 96.358 268.519 98.3466 270.46 99.696C272.402 101.022 274.875 101.685 277.882 101.685ZM339.61 110.101C334.33 110.101 329.785 108.905 325.973 106.514C322.185 104.099 319.274 100.773 317.238 96.5355C315.202 92.2978 314.184 87.4446 314.184 81.9759C314.184 76.4361 315.225 71.5473 317.309 67.3097C319.392 63.0483 322.328 59.7221 326.115 57.331C329.903 54.9399 334.366 53.7443 339.503 53.7443C343.646 53.7443 347.339 54.5137 350.583 56.0526C353.826 57.5677 356.442 59.6984 358.431 62.4446C360.443 65.1908 361.639 68.3987 362.017 72.0682H351.684C351.115 69.5114 349.813 67.3097 347.777 65.4631C345.765 63.6165 343.066 62.6932 339.681 62.6932C336.721 62.6932 334.129 63.4744 331.904 65.0369C329.702 66.5758 327.986 68.7775 326.755 71.642C325.524 74.483 324.908 77.8447 324.908 81.7273C324.908 85.7045 325.512 89.1373 326.719 92.0256C327.926 94.9138 329.631 97.151 331.833 98.7372C334.058 100.323 336.674 101.116 339.681 101.116C341.693 101.116 343.516 100.75 345.15 100.016C346.807 99.258 348.192 98.1809 349.304 96.7841C350.441 95.3873 351.234 93.7064 351.684 91.7415H362.017C361.639 95.2689 360.49 98.4176 358.573 101.188C356.655 103.957 354.087 106.135 350.867 107.722C347.671 109.308 343.918 110.101 339.61 110.101ZM383.138 90.4986L383.067 77.5369H384.913L406.646 54.4545H419.359L394.572 80.733H392.903L383.138 90.4986ZM373.372 109V36.2727H383.99V109H373.372ZM407.818 109L388.287 83.0767L395.602 75.6548L420.851 109H407.818ZM493.063 72.6364C493.063 80.4015 491.643 87.0777 488.802 92.6648C485.961 98.2282 482.067 102.513 477.119 105.52C472.194 108.503 466.595 109.994 460.322 109.994C454.024 109.994 448.402 108.503 443.454 105.52C438.53 102.513 434.647 98.2164 431.806 92.6293C428.965 87.0421 427.545 80.3778 427.545 72.6364C427.545 64.8712 428.965 58.2069 431.806 52.6435C434.647 47.0563 438.53 42.7713 443.454 39.7884C448.402 36.7817 454.024 35.2784 460.322 35.2784C466.595 35.2784 472.194 36.7817 477.119 39.7884C482.067 42.7713 485.961 47.0563 488.802 52.6435C491.643 58.2069 493.063 64.8712 493.063 72.6364ZM482.197 72.6364C482.197 66.7178 481.238 61.7344 479.32 57.6861C477.426 53.6141 474.822 50.5365 471.508 48.4531C468.217 46.3461 464.488 45.2926 460.322 45.2926C456.131 45.2926 452.391 46.3461 449.1 48.4531C445.809 50.5365 443.205 53.6141 441.288 57.6861C439.394 61.7344 438.447 66.7178 438.447 72.6364C438.447 78.5549 439.394 83.5502 441.288 87.6222C443.205 91.6705 445.809 94.7481 449.1 96.8551C452.391 98.9384 456.131 99.9801 460.322 99.9801C464.488 99.9801 468.217 98.9384 471.508 96.8551C474.822 94.7481 477.426 91.6705 479.32 87.6222C481.238 83.5502 482.197 78.5549 482.197 72.6364ZM565.444 36.2727V109H555.359L518.392 55.6619H517.717V109H506.744V36.2727H516.9L553.903 89.6818H554.578V36.2727H565.444Z" fill="#EFEFEF"/>
</svg>
