<svg width="592" height="112" viewBox="0 0 592 112" fill="none" xmlns="http://www.w3.org/2000/svg">
<g clip-path="url(#clip0_23_110)">
<path d="M583 0H9C4.02944 0 0 4.02944 0 9V42C0 46.9706 4.02944 51 9 51H583C587.971 51 592 46.9706 592 42V9C592 4.02944 587.971 0 583 0Z" fill="#181818"/>
<path d="M583 61H9C4.02944 61 0 65.0294 0 70V103C0 107.971 4.02944 112 9 112H583C587.971 112 592 107.971 592 103V70C592 65.0294 587.971 61 583 61Z" fill="#181818"/>
<path d="M12.7612 31.0001V16.4546H21.5396V18.0171H14.5225V22.9319H21.085V24.4944H14.5225V29.4376H21.6532V31.0001H12.7612ZM33.4075 20.091L29.3734 31.0001H27.6688L23.6347 20.091H25.4529L28.4643 28.7842H28.5779L31.5893 20.091H33.4075ZM39.8031 31.2274C38.7519 31.2274 37.8452 30.9954 37.0829 30.5313C36.3253 30.0626 35.7406 29.4092 35.3286 28.5711C34.9214 27.7283 34.7178 26.7482 34.7178 25.6308C34.7178 24.5134 34.9214 23.5285 35.3286 22.6762C35.7406 21.8192 36.3135 21.1516 37.0474 20.6734C37.786 20.1904 38.6478 19.949 39.6326 19.949C40.2008 19.949 40.7619 20.0437 41.3159 20.2331C41.8698 20.4224 42.3741 20.7302 42.8286 21.1563C43.2832 21.5778 43.6454 22.1365 43.9153 22.8325C44.1852 23.5285 44.3201 24.3855 44.3201 25.4035V26.1137H35.911V24.6649H42.6156C42.6156 24.0493 42.4925 23.5001 42.2462 23.0171C42.0048 22.5342 41.6591 22.153 41.2093 21.8737C40.7642 21.5943 40.2387 21.4546 39.6326 21.4546C38.965 21.4546 38.3873 21.6204 37.8997 21.9518C37.4167 22.2785 37.045 22.7046 36.7846 23.2302C36.5242 23.7558 36.394 24.3192 36.394 24.9206V25.8865C36.394 26.7103 36.536 27.4087 36.8201 27.9816C37.1089 28.5498 37.509 28.9831 38.0204 29.2813C38.5318 29.5749 39.126 29.7217 39.8031 29.7217C40.2434 29.7217 40.6411 29.6601 40.9962 29.537C41.3561 29.4092 41.6662 29.2198 41.9266 28.9689C42.1871 28.7132 42.3883 28.3959 42.5303 28.0171L44.1497 28.4717C43.9792 29.0209 43.6927 29.5039 43.2903 29.9206C42.8878 30.3325 42.3907 30.6545 41.7988 30.8865C41.2069 31.1137 40.5417 31.2274 39.8031 31.2274ZM48.546 24.4376V31.0001H46.8698V20.091H48.4891V21.7956H48.6312C48.8869 21.2416 49.2751 20.7965 49.796 20.4603C50.3168 20.1194 50.9891 19.949 51.813 19.949C52.5516 19.949 53.198 20.1005 53.7519 20.4035C54.3059 20.7018 54.7368 21.1563 55.0445 21.7671C55.3523 22.3732 55.5062 23.1403 55.5062 24.0683V31.0001H53.8301V24.1819C53.8301 23.3249 53.6075 22.6573 53.1624 22.1791C52.7174 21.6961 52.1066 21.4546 51.3301 21.4546C50.795 21.4546 50.3168 21.5706 49.8954 21.8027C49.4787 22.0347 49.1497 22.3732 48.9082 22.8183C48.6667 23.2634 48.546 23.8031 48.546 24.4376ZM63.3134 20.091V21.5115H57.66V20.091H63.3134ZM59.3077 17.4774H60.9838V27.8751C60.9838 28.3486 61.0525 28.7037 61.1898 28.9404C61.3318 29.1724 61.5118 29.3287 61.7296 29.4092C61.9521 29.4849 62.1865 29.5228 62.4327 29.5228C62.6173 29.5228 62.7689 29.5134 62.8872 29.4944C63.0056 29.4707 63.1003 29.4518 63.1713 29.4376L63.5122 30.9433C63.3986 30.9859 63.24 31.0285 63.0364 31.0711C62.8328 31.1185 62.5747 31.1421 62.2622 31.1421C61.7887 31.1421 61.3247 31.0403 60.8702 30.8367C60.4204 30.6331 60.0463 30.323 59.748 29.9063C59.4545 29.4897 59.3077 28.9641 59.3077 28.3296V17.4774ZM76.5449 16.4546V31.0001H74.7835V18.3012H74.6983L71.1472 20.6592V18.8694L74.7835 16.4546H76.5449Z" fill="#535353"/>
<path d="M12.7612 91.9999V77.4544H21.5396V79.0169H14.5225V83.9317H21.085V85.4942H14.5225V90.4374H21.6532V91.9999H12.7612ZM33.4075 81.0908L29.3734 91.9999H27.6688L23.6347 81.0908H25.4529L28.4643 89.784H28.5779L31.5893 81.0908H33.4075ZM39.8031 92.2272C38.7519 92.2272 37.8452 91.9952 37.0829 91.5311C36.3253 91.0624 35.7406 90.409 35.3286 89.5709C34.9214 88.7281 34.7178 87.748 34.7178 86.6306C34.7178 85.5132 34.9214 84.5283 35.3286 83.676C35.7406 82.819 36.3135 82.1514 37.0474 81.6732C37.786 81.1902 38.6478 80.9488 39.6326 80.9488C40.2008 80.9488 40.7619 81.0435 41.3159 81.2329C41.8698 81.4222 42.3741 81.73 42.8286 82.1561C43.2832 82.5776 43.6454 83.1363 43.9153 83.8323C44.1852 84.5283 44.3201 85.3853 44.3201 86.4033V87.1135H35.911V85.6647H42.6156C42.6156 85.0491 42.4925 84.4999 42.2462 84.0169C42.0048 83.534 41.6591 83.1528 41.2093 82.8735C40.7642 82.5941 40.2387 82.4544 39.6326 82.4544C38.965 82.4544 38.3873 82.6202 37.8997 82.9516C37.4167 83.2783 37.045 83.7044 36.7846 84.23C36.5242 84.7556 36.394 85.319 36.394 85.9204V86.8863C36.394 87.7101 36.536 88.4085 36.8201 88.9814C37.1089 89.5496 37.509 89.9829 38.0204 90.2811C38.5318 90.5747 39.126 90.7215 39.8031 90.7215C40.2434 90.7215 40.6411 90.6599 40.9962 90.5368C41.3561 90.409 41.6662 90.2196 41.9266 89.9687C42.1871 89.713 42.3883 89.3957 42.5303 89.0169L44.1497 89.4715C43.9792 90.0207 43.6927 90.5037 43.2903 90.9204C42.8878 91.3323 42.3907 91.6543 41.7988 91.8863C41.2069 92.1135 40.5417 92.2272 39.8031 92.2272ZM48.546 85.4374V91.9999H46.8698V81.0908H48.4891V82.7954H48.6312C48.8869 82.2414 49.2751 81.7963 49.796 81.4601C50.3168 81.1192 50.9891 80.9488 51.813 80.9488C52.5516 80.9488 53.198 81.1003 53.7519 81.4033C54.3059 81.7016 54.7368 82.1561 55.0445 82.7669C55.3523 83.373 55.5062 84.1401 55.5062 85.0681V91.9999H53.8301V85.1817C53.8301 84.3247 53.6075 83.6571 53.1624 83.1789C52.7174 82.6959 52.1066 82.4544 51.3301 82.4544C50.795 82.4544 50.3168 82.5704 49.8954 82.8025C49.4787 83.0345 49.1497 83.373 48.9082 83.8181C48.6667 84.2632 48.546 84.8029 48.546 85.4374ZM63.3134 81.0908V82.5113H57.66V81.0908H63.3134ZM59.3077 78.4772H60.9838V88.8749C60.9838 89.3484 61.0525 89.7035 61.1898 89.9402C61.3318 90.1722 61.5118 90.3285 61.7296 90.409C61.9521 90.4847 62.1865 90.5226 62.4327 90.5226C62.6173 90.5226 62.7689 90.5132 62.8872 90.4942C63.0056 90.4705 63.1003 90.4516 63.1713 90.4374L63.5122 91.9431C63.3986 91.9857 63.24 92.0283 63.0364 92.0709C62.8328 92.1183 62.5747 92.1419 62.2622 92.1419C61.7887 92.1419 61.3247 92.0401 60.8702 91.8365C60.4204 91.6329 60.0463 91.3228 59.748 90.9061C59.4545 90.4895 59.3077 89.9639 59.3077 89.3294V78.4772ZM71.4313 91.9999V90.7215L76.2324 85.4658C76.7958 84.8503 77.2599 84.3152 77.6244 83.8607C77.989 83.4014 78.2589 82.9705 78.4341 82.5681C78.614 82.1609 78.704 81.7347 78.704 81.2897C78.704 80.7783 78.5809 80.3356 78.3347 79.9615C78.0932 79.5875 77.7618 79.2987 77.3404 79.0951C76.919 78.8915 76.4455 78.7897 75.9199 78.7897C75.3612 78.7897 74.8735 78.9057 74.4568 79.1377C74.0449 79.365 73.7253 79.6846 73.498 80.0965C73.2755 80.5084 73.1642 80.9914 73.1642 81.5454H71.4881C71.4881 80.6931 71.6846 79.945 72.0776 79.301C72.4706 78.6571 73.0056 78.1552 73.6827 77.7954C74.3645 77.4355 75.1292 77.2556 75.9767 77.2556C76.829 77.2556 77.5842 77.4355 78.2423 77.7954C78.9005 78.1552 79.4166 78.6405 79.7906 79.2513C80.1647 79.8621 80.3517 80.5416 80.3517 81.2897C80.3517 81.8247 80.2547 82.3479 80.0605 82.8593C79.8711 83.3659 79.5397 83.9317 79.0662 84.5567C78.5975 85.177 77.9464 85.9346 77.1131 86.8294L73.846 90.3238V90.4374H80.6074V91.9999H71.4313Z" fill="#535353"/>
</g>
<defs>
<clipPath id="clip0_23_110">
<rect width="592" height="112" fill="white"/>
</clipPath>
</defs>
</svg>
